<svg viewBox="0 0 900 360" xmlns="http://www.w3.org/2000/svg">
<rect width="900" height="360" fill="#f5f3ed"/>
<text x="450.0" y="46" fill="#1b1e22" font-family="DM Sans,sans-serif" font-size="20" font-weight="700" text-anchor="middle">A four-legged button only has two connections</text>
<rect x="370" y="95" width="160" height="160" rx="10" fill="#e2ddd2" stroke="#d9d3c7" stroke-width="2"/>
<circle cx="450" cy="175" r="34" fill="#c9c2b3" stroke="#d9d3c7" stroke-width="2"/>
<line x1="370" y1="119" x2="330" y2="119" stroke="#9aa0a6" stroke-width="4"/>
<circle cx="330" cy="119" r="9" fill="#fff" stroke="#5d6670" stroke-width="2"/>
<text x="306" y="125" fill="#5d6670" font-family="JetBrains Mono,monospace" font-size="16" text-anchor="end">A</text>
<line x1="370" y1="231" x2="330" y2="231" stroke="#9aa0a6" stroke-width="4"/>
<circle cx="330" cy="231" r="9" fill="#fff" stroke="#5d6670" stroke-width="2"/>
<text x="306" y="237" fill="#5d6670" font-family="JetBrains Mono,monospace" font-size="16" text-anchor="end">B</text>
<line x1="530" y1="119" x2="570" y2="119" stroke="#9aa0a6" stroke-width="4"/>
<circle cx="570" cy="119" r="9" fill="#fff" stroke="#5d6670" stroke-width="2"/>
<text x="594" y="125" fill="#5d6670" font-family="JetBrains Mono,monospace" font-size="16" text-anchor="start">C</text>
<line x1="530" y1="231" x2="570" y2="231" stroke="#9aa0a6" stroke-width="4"/>
<circle cx="570" cy="231" r="9" fill="#fff" stroke="#5d6670" stroke-width="2"/>
<text x="594" y="237" fill="#5d6670" font-family="JetBrains Mono,monospace" font-size="16" text-anchor="start">D</text>
<line x1="330" y1="119" x2="330" y2="231" stroke="#00767d" stroke-width="5" opacity=".8"/>
<line x1="570" y1="119" x2="570" y2="231" stroke="#00767d" stroke-width="5" opacity=".8"/>
<text x="330" y="267" fill="#00767d" font-family="DM Sans,sans-serif" font-size="15" font-weight="700" text-anchor="middle">always joined</text>
<text x="570" y="267" fill="#00767d" font-family="DM Sans,sans-serif" font-size="15" font-weight="700" text-anchor="middle">always joined</text>
<line x1="330" y1="175" x2="570" y2="175" stroke="#c4551a" stroke-width="4" stroke-dasharray="9,7"/>
<text x="450" y="123" fill="#c4551a" font-family="DM Sans,sans-serif" font-size="16" font-weight="700" text-anchor="middle">joined only while pressed</text>
<text x="450.0" y="342" fill="#5d6670" font-family="DM Sans,sans-serif" font-size="17" text-anchor="middle">Use one leg from the left and one from the right, straddling the centre gap.</text>
</svg>