<svg viewBox="0 0 900 470" xmlns="http://www.w3.org/2000/svg">
<rect width="900" height="470" fill="#f5f3ed"/>
<line x1="120" y1="90" x2="120" y2="310" stroke="#5d6670" stroke-width="1.5"/>
<line x1="114" y1="120" x2="120" y2="120" stroke="#5d6670" stroke-width="1.5"/>
<line x1="120" y1="120" x2="840" y2="120" stroke="#1a7f4b" stroke-width="1" stroke-dasharray="4,6" opacity=".45"/>
<text x="106" y="126" fill="#1a7f4b" font-family="JetBrains Mono,monospace" font-size="17" text-anchor="end">5 V</text>
<line x1="114" y1="270" x2="120" y2="270" stroke="#5d6670" stroke-width="1.5"/>
<line x1="120" y1="270" x2="840" y2="270" stroke="#5d6670" stroke-width="1" stroke-dasharray="4,6" opacity=".45"/>
<text x="106" y="276" fill="#5d6670" font-family="JetBrains Mono,monospace" font-size="17" text-anchor="end">0 V</text>
<text x="50" y="195.0" fill="#5d6670" font-family="DM Sans,sans-serif" font-size="15" text-anchor="middle" transform="rotate(-90,50,195.0)">voltage</text>
<line x1="120" y1="310" x2="858" y2="310" stroke="#5d6670" stroke-width="1.5"/>
<polygon points="866,310 854,304 854,316" fill="#5d6670"/>
<line x1="120.0" y1="310" x2="120.0" y2="320" stroke="#5d6670" stroke-width="1.5"/>
<text x="120.0" y="340" fill="#1b1e22" font-family="JetBrains Mono,monospace" font-size="16" text-anchor="middle">0 ms</text>
<line x1="120.0" y1="100" x2="120.0" y2="310" stroke="#d9d3c7" stroke-width="1"/>
<line x1="180.0" y1="310" x2="180.0" y2="315" stroke="#5d6670" stroke-width="1"/>
<line x1="240.0" y1="310" x2="240.0" y2="315" stroke="#5d6670" stroke-width="1"/>
<line x1="300.0" y1="310" x2="300.0" y2="315" stroke="#5d6670" stroke-width="1"/>
<line x1="360.0" y1="310" x2="360.0" y2="320" stroke="#5d6670" stroke-width="1.5"/>
<text x="360.0" y="340" fill="#1b1e22" font-family="JetBrains Mono,monospace" font-size="16" text-anchor="middle">1 ms</text>
<line x1="360.0" y1="100" x2="360.0" y2="310" stroke="#d9d3c7" stroke-width="1"/>
<line x1="420.0" y1="310" x2="420.0" y2="315" stroke="#5d6670" stroke-width="1"/>
<line x1="480.0" y1="310" x2="480.0" y2="315" stroke="#5d6670" stroke-width="1"/>
<line x1="540.0" y1="310" x2="540.0" y2="315" stroke="#5d6670" stroke-width="1"/>
<line x1="600.0" y1="310" x2="600.0" y2="320" stroke="#5d6670" stroke-width="1.5"/>
<text x="600.0" y="340" fill="#1b1e22" font-family="JetBrains Mono,monospace" font-size="16" text-anchor="middle">2 ms</text>
<line x1="600.0" y1="100" x2="600.0" y2="310" stroke="#d9d3c7" stroke-width="1"/>
<line x1="660.0" y1="310" x2="660.0" y2="315" stroke="#5d6670" stroke-width="1"/>
<line x1="720.0" y1="310" x2="720.0" y2="315" stroke="#5d6670" stroke-width="1"/>
<line x1="780.0" y1="310" x2="780.0" y2="315" stroke="#5d6670" stroke-width="1"/>
<line x1="840.0" y1="310" x2="840.0" y2="320" stroke="#5d6670" stroke-width="1.5"/>
<text x="840.0" y="340" fill="#1b1e22" font-family="JetBrains Mono,monospace" font-size="16" text-anchor="middle">3 ms</text>
<line x1="840.0" y1="100" x2="840.0" y2="310" stroke="#d9d3c7" stroke-width="1"/>
<text x="480.0" y="368" fill="#5d6670" font-family="DM Sans,sans-serif" font-size="15" text-anchor="middle">time</text>
<rect x="120.0" y="120" width="180.0" height="150" fill="#c4551a" opacity=".13"/>
<rect x="360.0" y="120" width="180.0" height="150" fill="#c4551a" opacity=".13"/>
<rect x="600.0" y="120" width="180.0" height="150" fill="#c4551a" opacity=".13"/>
<polyline points="120.0,270 120.0,120 300.0,120 300.0,270 360.0,270 360.0,270 360.0,120 540.0,120 540.0,270 600.0,270 600.0,270 600.0,120 780.0,120 780.0,270 840.0,270" fill="none" stroke="#c4551a" stroke-width="3.5" stroke-linejoin="miter"/>
<line x1="120.0" y1="92" x2="300.0" y2="92" stroke="#c4551a" stroke-width="1.8"/>
<line x1="120.0" y1="86" x2="120.0" y2="98" stroke="#c4551a" stroke-width="1.8"/>
<line x1="300.0" y1="86" x2="300.0" y2="98" stroke="#c4551a" stroke-width="1.8"/>
<text x="210.0" y="80" fill="#c4551a" font-family="DM Sans,sans-serif" font-size="16" font-weight="700" text-anchor="middle">on 0.75 ms</text>
<line x1="300.0" y1="92" x2="360.0" y2="92" stroke="#5d6670" stroke-width="1.8"/>
<line x1="300.0" y1="86" x2="300.0" y2="98" stroke="#5d6670" stroke-width="1.8"/>
<line x1="360.0" y1="86" x2="360.0" y2="98" stroke="#5d6670" stroke-width="1.8"/>
<text x="330.0" y="80" fill="#5d6670" font-family="DM Sans,sans-serif" font-size="16" font-weight="700" text-anchor="middle">off 0.25 ms</text>
<line x1="360.0" y1="50" x2="600.0" y2="50" stroke="#00767d" stroke-width="1.8"/>
<line x1="360.0" y1="44" x2="360.0" y2="56" stroke="#00767d" stroke-width="1.8"/>
<line x1="600.0" y1="44" x2="600.0" y2="56" stroke="#00767d" stroke-width="1.8"/>
<text x="480.0" y="38" fill="#00767d" font-family="DM Sans,sans-serif" font-size="16" font-weight="700" text-anchor="middle">one cycle: 1 ms</text>
<text x="450.0" y="420" fill="#1b1e22" font-family="DM Sans,sans-serif" font-size="19" font-weight="700" text-anchor="middle">On for 75% of every cycle. That is a 75% duty cycle.</text>
<line x1="120" y1="157.5" x2="840" y2="157.5" stroke="#00767d" stroke-width="3" stroke-dasharray="10,7"/>
<line x1="114" y1="157.5" x2="120" y2="157.5" stroke="#00767d" stroke-width="1.5"/>
<text x="106" y="163.5" fill="#00767d" font-family="JetBrains Mono,monospace" font-size="17" font-weight="700" text-anchor="end">3.75 V</text>
<rect x="406.0" y="127.5" width="88" height="22" rx="4" fill="#f5f3ed" opacity=".9"/>
<text x="450.0" y="144.5" fill="#00767d" font-family="DM Sans,sans-serif" font-size="16" font-weight="700" text-anchor="middle">average</text>
<text x="450.0" y="448" fill="#5d6670" font-family="DM Sans,sans-serif" font-size="16" text-anchor="middle">The pin is only ever at 5 V or 0 V, but averaged over time it acts like 3.75 V.</text>
</svg>